<svg width="23" height="23" viewBox="0 0 23 23" fill="none" xmlns="http://www.w3.org/2000/svg">
    <path d="M22.9165 5.37768C22.7653 4.81328 22.2594 4.4556 21.695 4.54047C21.6528 4.54681 21.6105 4.5556 21.5684 4.56689L19.8057 5.0392L21.8633 2.98151C22.3728 2.47209 22.3728 1.64612 21.8633 1.1367C21.3539 0.627276 20.528 0.627276 20.0185 1.1367L17.9608 3.19439L18.4332 1.43167C18.5957 0.825067 18.2357 0.201614 17.6291 0.0390867C17.0226 -0.12344 16.3991 0.236507 16.2365 0.843115L14.5571 7.11068L15.6078 7.39219L15.9755 8.44288L22.1569 6.71723C22.7635 6.55466 23.0791 5.98429 22.9165 5.37768Z" fill="#3CDDB1"/>
    <path d="M22.9609 5.37091C22.8097 4.80655 22.2594 4.45623 21.695 4.54106C21.63 4.97505 21.3159 5.35073 20.8649 5.47156L14.6523 7.13621L15.6078 7.39222L15.8893 8.44291L22.1569 6.76354C22.7634 6.60097 23.1234 5.97747 22.9609 5.37091Z" fill="#00BA88"/>
    <path d="M0.289698 20.5881L5.79882 12.7322L6.15516 12.567L6.20348 12.1551L10.6375 5.83262L10.9907 5.66435C11.013 5.63247 11.0442 5.25757 11.0442 5.25757C11.0442 5.25757 11.1102 5.16483 11.1221 5.14974C12.2345 3.73888 14.3478 3.59824 15.6365 4.88698L17.0614 6.31187L18.0668 7.36353C19.3969 8.6936 19.2507 10.8556 17.7107 11.9356L2.4119 22.6641C1.37898 23.3884 0.177428 22.6908 0.0178167 21.6892C-0.0383644 21.3365 0.0346155 20.9519 0.289698 20.5881Z" fill="#FFAA5F"/>
    <path d="M18.113 7.36354L16.821 6.07156C18.151 7.40163 17.9586 9.60991 16.4186 10.6899L1.1199 21.4184C0.756107 21.6735 0.371771 21.7453 0.019043 21.689C0.178747 22.6906 1.379 23.4347 2.41188 22.7104L13.8064 14.6735L14.0564 14.4021L14.3834 14.2688L17.7106 11.9819C19.2506 10.9019 19.443 8.69361 18.113 7.36354Z" fill="#FF8C5A"/>
    <path d="M10.6375 5.83263L13.3049 8.50012C13.3727 8.56787 13.4616 8.60179 13.5504 8.60179C13.6392 8.60179 13.7281 8.56792 13.7959 8.50012C13.9314 8.36457 13.9314 8.1448 13.7959 8.0093L11.0442 5.25763C10.9321 5.41483 10.7315 5.69912 10.6375 5.83263Z" fill="#FF8C5A"/>
    <path d="M5.79883 12.7322L8.06958 15.0029C8.13733 15.0707 8.22618 15.1046 8.31499 15.1046C8.40379 15.1046 8.49265 15.0707 8.5604 15.0029C8.69595 14.8674 8.69595 14.6476 8.5604 14.5121L6.20343 12.1552L5.79883 12.7322Z" fill="#FF8C5A"/>
    <path d="M11.5935 11.4789C11.4579 11.3433 11.2382 11.3434 11.1026 11.4789C10.9671 11.6145 10.9671 11.8342 11.1026 11.9697L12.5416 13.4087L13.1909 13.8387L13.5663 13.7293L13.1186 13.004L11.5935 11.4789Z" fill="#FF8C5A"/>
    <path d="M12.5417 13.4087L13.1188 13.004L14.3836 14.2688L13.8065 14.6734L12.5417 13.4087Z" fill="#FF7350"/>
</svg>
